<svg width="520" height="600" viewBox="0 0 520 600" fill="none" xmlns="http://www.w3.org/2000/svg">
<g clip-path="url(#clip0_1696_2330)">
<g clip-path="url(#clip1_1696_2330)">
<path d="M0 165.2V434.698C0 445.559 5.7 455.608 15 461.09L245 595.889C254.3 601.37 265.7 601.37 275 595.889L505 461.09C514.3 455.608 520 445.559 520 434.698V165.2C520 154.339 514.3 144.29 505 138.809L275 4.11098C265.7 -1.37033 254.3 -1.37033 245 4.11098L15 138.809C5.7 144.29 0 154.339 0 165.2Z" fill="#25212B"/>
<path opacity="0.15" d="M0 165.2V434.698C0 445.559 5.7 455.608 15 461.09L245 595.889C254.3 601.37 265.7 601.37 275 595.889L505 461.09C514.3 455.608 520 445.559 520 434.698V165.2C520 154.339 514.3 144.29 505 138.809L275 4.11098C265.7 -1.37033 254.3 -1.37033 245 4.11098L15 138.809C5.7 144.29 0 154.339 0 165.2Z" fill="#E66124"/>
<path d="M245.753 558.792L245.75 558.79L46.7532 442.162C37.9142 436.951 32.5 427.404 32.5 417.087V183.827C32.5 173.511 37.913 163.964 46.7503 158.754L46.7532 158.752L245.75 42.2256L245.753 42.2235C254.587 37.0167 265.413 37.0167 274.247 42.2235L274.25 42.2256L473.247 158.752L473.249 158.753C482.087 163.963 487.5 173.511 487.5 183.827V417.087C487.5 427.404 482.086 436.951 473.247 442.162L274.25 558.79L274.247 558.792C265.413 563.998 254.587 563.998 245.753 558.792Z" fill="#2A262F" stroke="#E66124" stroke-width="3"/>
<path d="M520 221.385H0V393.538H520V221.385Z" fill="#25212B"/>
<path fill-rule="evenodd" clip-rule="evenodd" d="M166.5 159.769C166.5 166.265 167 172.66 167.9 179.055L169.9 192.758C168.1 193.063 166.4 193.266 164.5 193.266C162.6 193.266 160.9 193.063 159.1 192.758L161.1 179.055C162 172.66 162.5 166.265 162.5 159.769V130.941C163.2 130.941 163.9 130.84 164.6 130.84C165.3 130.84 166 130.84 166.7 130.941V159.769H166.5ZM145.8 186.972L153.8 171.138C154.4 169.92 154.7 168.6 154.7 167.28V132.464C142.5 136.626 133.6 148.299 133.6 162.104C133.7 172.254 138.5 181.288 145.8 186.972ZM174.2 167.28C174.2 168.6 174.5 169.92 175.1 171.138L183.1 186.972C190.5 181.288 195.2 172.254 195.2 162.104C195.2 148.299 186.4 136.626 174.1 132.464V167.28H174.2Z" fill="white"/>
<path d="M385 151.955V151.244H388.4V151.955H385ZM386.3 155.71V151.752H387V155.71H386.3ZM389.1 155.71V151.346H389.8V155.71H389.1ZM391.2 155.71L389.3 151.346H390.1L391.4 154.594L392.7 151.346H393.5L391.6 155.71H391.2ZM392.9 155.71V151.346H393.6V155.71H392.9Z" fill="white"/>
<path d="M230.5 143.021C219 143.021 210.6 151.345 210.6 162.917V163.323C210.6 174.996 218.8 183.218 230.5 183.218C242.2 183.218 250.3 174.996 250.3 163.221V162.815C250.3 151.142 242.1 143.021 230.5 143.021ZM218.7 162.917C218.7 154.593 223.2 149.416 230.5 149.416C237.8 149.416 242.2 154.695 242.2 162.917V163.323C242.2 171.545 237.6 176.924 230.6 176.924C223.6 176.924 218.7 171.342 218.7 163.424V162.917Z" fill="white"/>
<path d="M286.399 141.5C285.099 141.094 284.099 140.992 282.499 140.992C276.299 140.992 272.699 144.545 272.699 150.838V153.985H261.899V150.534C261.899 147.387 263.799 146.677 265.299 146.677C266.499 146.677 267.499 146.981 268.099 147.184C268.199 147.184 268.299 147.184 268.399 147.184C268.499 147.083 268.499 147.083 268.499 146.981V141.906C268.499 141.804 268.399 141.703 268.299 141.601C266.999 141.195 265.999 141.094 264.499 141.094C258.199 141.094 254.699 144.545 254.699 150.94V182.508C254.699 182.711 254.799 182.813 254.999 182.813H261.499C261.699 182.813 261.799 182.711 261.799 182.508V159.365H272.599V182.305C272.599 182.508 272.699 182.61 272.899 182.61H279.399C279.599 182.61 279.699 182.508 279.699 182.305V159.365H285.799C285.999 159.365 286.099 159.263 286.099 159.06V154.188C286.099 153.985 285.999 153.883 285.799 153.883H279.699V150.534C279.699 147.387 281.599 146.677 283.099 146.677C284.399 146.677 285.399 146.981 285.999 147.184C286.099 147.184 286.199 147.184 286.299 147.184C286.399 147.184 286.399 147.083 286.399 146.981V141.906C286.599 141.703 286.599 141.601 286.399 141.5Z" fill="white"/>
<path d="M305.7 159.161C299.1 158.247 297.9 156.725 297.9 153.781C297.9 150.837 300.3 149.01 304.3 149.01C308.7 149.01 310.8 150.634 311.5 154.492C311.5 154.593 311.6 154.695 311.8 154.695H318.4C318.5 154.695 318.6 154.695 318.6 154.593C318.7 154.492 318.7 154.492 318.7 154.39C317.9 146.879 313 142.92 304.3 142.92C296.2 142.92 290.5 147.589 290.5 154.289C290.5 160.988 294.4 164.541 304.4 165.86C311.1 166.977 312.2 168.499 312.2 171.443C312.2 174.793 309.4 177.026 305.2 177.026C298.7 177.026 297.3 173.778 296.9 170.225C296.9 170.123 296.8 169.92 296.6 169.92H289.7C289.6 169.92 289.5 169.92 289.5 170.022C289.5 170.123 289.4 170.123 289.4 170.225C289.8 176.011 292.9 183.015 305.2 183.015C313.6 183.015 319.7 177.838 319.7 170.834C319.8 162.815 314.4 160.379 305.7 159.161Z" fill="white"/>
<path d="M347.599 156.725C345.199 154.491 341.899 153.273 338.099 153.273C329.599 153.273 323.699 159.364 323.699 168.093V168.499C323.699 177.229 329.599 183.116 338.299 183.116C345.799 183.116 350.699 179.665 351.599 173.676C351.599 173.575 351.599 173.473 351.499 173.473C351.399 173.372 351.399 173.372 351.299 173.372H344.999C344.899 173.372 344.699 173.473 344.699 173.575C344.199 176.315 342.099 177.635 338.499 177.635C333.999 177.635 331.299 174.894 330.999 169.92H351.399C351.599 169.92 351.699 169.819 351.699 169.616V167.687C351.699 163.018 350.299 159.262 347.599 156.725ZM331.199 165.048C331.899 160.988 334.399 158.653 338.099 158.653C342.099 158.653 344.299 160.785 344.599 165.048H331.199Z" fill="white"/>
<path d="M384.101 171.646C384.001 171.545 384.001 171.545 383.901 171.545H377.901C377.701 171.545 377.601 171.646 377.601 171.849C377.301 175.3 374.701 177.635 371.101 177.635C366.301 177.635 363.601 174.285 363.601 168.601V168.195C363.601 162.714 366.501 159.262 371.001 159.262C374.601 159.262 376.701 160.988 377.201 164.338C377.201 164.439 377.301 164.642 377.501 164.642H383.801C383.901 164.642 384.001 164.642 384.001 164.541C384.101 164.439 384.101 164.439 384.101 164.338C383.401 157.435 378.601 153.477 370.901 153.477C362.401 153.477 356.301 159.77 356.301 168.398V168.804C356.301 177.533 362.201 183.421 370.901 183.421C378.501 183.421 383.801 178.954 384.301 172.052C384.201 171.849 384.201 171.748 384.101 171.646Z" fill="white"/>
<path d="M101.305 351.494C93.3844 351.494 86.5044 350.073 80.6644 347.231C74.9044 344.389 70.1044 340.694 66.2644 336.147C62.5044 331.518 59.6644 326.565 57.7444 321.286C55.9044 315.927 54.9844 310.77 54.9844 305.817V303.137C54.9844 297.696 55.9444 292.296 57.8644 286.937C59.7844 281.496 62.6644 276.583 66.5044 272.198C70.4244 267.813 75.2644 264.321 81.0243 261.723C86.7844 259.043 93.5444 257.703 101.305 257.703C108.985 257.703 115.705 259.043 121.465 261.723C127.225 264.321 132.025 267.813 135.865 272.198C139.785 276.583 142.705 281.496 144.625 286.937C146.545 292.296 147.505 297.696 147.505 303.137V305.817C147.505 310.77 146.545 315.927 144.625 321.286C142.785 326.565 139.945 331.518 136.105 336.147C132.345 340.694 127.545 344.389 121.705 347.231C115.945 350.073 109.145 351.494 101.305 351.494ZM101.305 335.416C105.785 335.416 109.785 334.604 113.305 332.98C116.905 331.356 119.945 329.123 122.425 326.28C124.985 323.357 126.905 320.068 128.185 316.414C129.545 312.679 130.225 308.74 130.225 304.599C130.225 300.132 129.545 296.032 128.185 292.296C126.905 288.561 124.985 285.313 122.425 282.552C119.945 279.791 116.905 277.639 113.305 276.096C109.705 274.553 105.705 273.782 101.305 273.782C96.8244 273.782 92.7844 274.553 89.1844 276.096C85.5844 277.639 82.5044 279.791 79.9444 282.552C77.4644 285.313 75.5444 288.561 74.1844 292.296C72.9044 296.032 72.2644 300.132 72.2644 304.599C72.2644 308.74 72.9044 312.679 74.1844 316.414C75.5444 320.068 77.4644 323.357 79.9444 326.28C82.5044 329.123 85.5844 331.356 89.1844 332.98C92.7844 334.604 96.8244 335.416 101.305 335.416ZM193.384 351.494C185.624 351.494 179.064 350.236 173.704 347.718C168.424 345.201 164.384 341.75 161.584 337.365C158.784 332.899 157.384 327.864 157.384 322.261H174.064C174.064 324.616 174.704 326.93 175.984 329.204C177.264 331.396 179.304 333.183 182.104 334.563C184.984 335.944 188.744 336.634 193.384 336.634C197.544 336.634 201.024 336.025 203.824 334.807C206.624 333.589 208.704 332.005 210.064 330.056C211.424 328.026 212.104 325.753 212.104 323.235C212.104 320.068 210.784 317.551 208.144 315.683C205.504 313.734 201.424 312.516 195.904 312.029L188.224 311.42C179.824 310.689 173.104 308.05 168.064 303.502C163.104 298.874 160.624 292.783 160.624 285.231C160.624 279.547 161.944 274.675 164.584 270.615C167.224 266.473 170.904 263.306 175.624 261.114C180.424 258.84 186.024 257.703 192.424 257.703C199.064 257.703 204.784 258.881 209.584 261.236C214.384 263.59 218.104 266.92 220.744 271.224C223.384 275.446 224.704 280.44 224.704 286.206H208.024C208.024 283.77 207.424 281.537 206.224 279.507C205.104 277.395 203.384 275.731 201.064 274.512C198.824 273.213 195.944 272.564 192.424 272.564C189.064 272.564 186.264 273.132 184.024 274.269C181.784 275.406 180.104 276.949 178.984 278.898C177.864 280.846 177.304 282.958 177.304 285.231C177.304 287.992 178.304 290.429 180.304 292.54C182.304 294.57 185.464 295.747 189.784 296.072L197.464 296.803C203.704 297.29 209.184 298.63 213.904 300.823C218.624 303.015 222.264 305.979 224.824 309.715C227.464 313.45 228.784 317.957 228.784 323.235C228.784 328.838 227.344 333.792 224.464 338.096C221.584 342.318 217.464 345.607 212.104 347.962C206.824 350.317 200.584 351.494 193.384 351.494ZM283.844 351.494C275.924 351.494 269.124 350.073 263.444 347.231C257.764 344.389 253.124 340.694 249.524 336.147C246.004 331.599 243.404 326.646 241.724 321.286C240.044 315.927 239.204 310.77 239.204 305.817V303.137C239.204 297.615 240.044 292.174 241.724 286.815C243.484 281.455 246.164 276.583 249.764 272.198C253.364 267.813 257.924 264.321 263.444 261.723C269.044 259.043 275.644 257.703 283.244 257.703C291.164 257.703 298.044 259.165 303.884 262.088C309.804 264.93 314.524 268.991 318.044 274.269C321.564 279.466 323.684 285.556 324.404 292.54H307.244C306.604 288.48 305.164 285.069 302.924 282.308C300.764 279.466 298.004 277.355 294.644 275.974C291.284 274.512 287.484 273.782 283.244 273.782C278.924 273.782 275.084 274.553 271.724 276.096C268.364 277.558 265.564 279.669 263.324 282.43C261.084 285.191 259.364 288.439 258.164 292.174C257.044 295.91 256.484 300.051 256.484 304.599C256.484 308.984 257.044 313.044 258.164 316.779C259.364 320.515 261.124 323.804 263.444 326.646C265.764 329.407 268.604 331.559 271.964 333.102C275.404 334.644 279.364 335.416 283.844 335.416C290.404 335.416 295.924 333.792 300.404 330.544C304.964 327.214 307.724 322.586 308.684 316.658H325.844C325.044 322.992 322.924 328.798 319.484 334.076C316.044 339.354 311.324 343.577 305.324 346.744C299.324 349.911 292.164 351.494 283.844 351.494ZM354.863 321.895V306.913H371.903C375.343 306.913 378.223 306.223 380.543 304.842C382.943 303.462 384.743 301.554 385.943 299.117C387.223 296.681 387.863 293.88 387.863 290.713C387.863 287.546 387.223 284.744 385.943 282.308C384.743 279.872 382.943 278.004 380.543 276.705C378.223 275.325 375.343 274.634 371.903 274.634H354.863V259.652H370.463C377.823 259.652 384.063 260.87 389.183 263.306C394.383 265.742 398.343 269.234 401.063 273.782C403.783 278.248 405.143 283.567 405.143 289.738V291.687C405.143 297.859 403.783 303.218 401.063 307.766C398.343 312.232 394.383 315.724 389.183 318.241C384.063 320.677 377.823 321.895 370.463 321.895H354.863ZM340.223 349.18V259.652H357.263V349.18H340.223ZM436.727 337.365V277.192H451.367V337.365H436.727ZM415.007 314.1V300.457H473.087V314.1H415.007Z" fill="white"/>
<path d="M290.015 458.968C289.747 458.968 289.491 458.852 289.308 458.65C272.655 440.07 263.81 431.98 236.762 420.649C236.319 420.463 236.079 419.972 236.205 419.497C236.331 419.027 236.778 418.717 237.258 418.787C271.979 423.538 294.688 456.842 294.911 457.181C295.103 457.469 295.131 457.841 294.981 458.155C294.83 458.469 294.525 458.675 294.183 458.699L290.076 458.972C290.056 458.972 290.035 458.972 290.015 458.972V458.968Z" fill="url(#paint0_linear_1696_2330)"/>
<path d="M327.084 491.966C326.962 491.557 326.588 491.275 326.165 491.275H326.157C326.096 491.275 323.717 491.255 318.406 489.241C313.635 487.428 307.942 482.281 306.588 480.882C306.641 480.865 306.702 480.853 306.771 480.837C306.929 480.803 307.076 480.733 307.202 480.625C307.564 480.316 307.771 479.878 307.792 479.367C307.869 477.505 305.282 474.818 304.986 474.521C304.591 474.116 302.358 470.604 297.377 462.042L297.243 461.811C297.218 461.774 297.202 461.732 297.182 461.696C297.047 461.435 296.848 461.039 296.267 460.647C296.193 460.597 296.112 460.556 296.027 460.531C294.591 460.06 290.036 460.771 288.052 461.113C287.763 460.75 287.328 460.148 287.157 459.908C286.999 459.689 286.881 459.529 286.844 459.483C285.4 457.769 283.819 456.089 282.139 454.492C276.885 449.485 271.338 445.881 265.645 443.776C260.773 441.972 256.491 437.278 255.466 432.606C255.384 432.231 255.303 431.83 255.303 431.475C255.303 431.025 254.998 430.633 254.563 430.529C254.132 430.427 253.685 430.641 253.489 431.046C251.806 434.522 252.879 439.293 253.624 441.733C242.879 440.668 239.065 432.56 238.906 432.209C238.731 431.817 238.317 431.595 237.894 431.652C237.471 431.714 237.141 432.057 237.084 432.486C236.23 438.938 239.118 442.951 241.041 444.854C232.599 446.323 226.389 439.467 226.324 439.392C226.072 439.108 225.681 439 225.324 439.116C224.966 439.231 224.705 439.549 224.661 439.929C224.628 440.202 224.026 446.398 232.818 451.231C228.158 455.817 225.6 461.456 225.214 468.007C224.766 475.59 227.414 483.355 230.773 489.022C230.362 489.484 230.069 490.046 229.923 490.669C229.691 491.652 229.85 492.671 230.37 493.534C230.891 494.397 231.712 495.004 232.68 495.238C232.973 495.309 233.266 495.346 233.559 495.346C234.238 495.346 234.905 495.156 235.498 494.789C235.389 494.855 235.275 494.912 235.165 494.966C237.206 497.501 238.605 499.978 239.569 502.12C238.833 502.648 238.317 503.421 238.105 504.316C237.873 505.298 238.032 506.318 238.552 507.176C239.073 508.039 239.894 508.646 240.862 508.882C241.155 508.952 241.444 508.984 241.733 508.984C243.388 508.984 244.896 507.853 245.336 506.169H271.419C271.513 506.521 271.651 506.859 271.846 507.176C272.367 508.039 273.188 508.646 274.156 508.882C274.449 508.952 274.738 508.984 275.026 508.984C276.71 508.984 278.243 507.817 278.654 506.083C278.886 505.1 278.727 504.08 278.207 503.222C277.686 502.359 276.865 501.753 275.897 501.517C275.266 501.364 274.62 501.381 274.014 501.554C270.956 496.848 265.758 490.962 259.585 486.004C259.638 485.864 259.683 485.72 259.719 485.567C259.951 484.584 259.793 483.569 259.272 482.706C258.752 481.844 257.93 481.237 256.962 481.002C255.994 480.762 254.99 480.927 254.144 481.456C253.998 481.546 253.863 481.65 253.729 481.757C247.3 477.212 245.49 470.554 246.588 466.15C246.759 465.469 246.999 464.832 247.296 464.246C247.515 464.35 247.747 464.432 247.987 464.49C248.28 464.56 248.573 464.593 248.857 464.593C250.541 464.593 252.074 463.425 252.485 461.692C252.619 461.113 252.615 460.539 252.497 459.994C253.319 459.739 254.205 459.569 255.161 459.495C266.153 458.666 277.56 467.404 279.687 469.122C279.61 472.568 279.825 475.916 282.277 479.033C284.038 481.27 288.898 483.474 292.802 485.245C294.437 485.988 295.852 486.627 296.681 487.115C297.816 487.776 307.926 493.798 314.03 501.859C314.229 502.12 314.546 502.264 314.868 502.235C315.193 502.207 315.482 502.017 315.632 501.723C316.433 500.201 322.842 495.598 326.689 493.051C327.047 492.815 327.202 492.37 327.08 491.957L327.084 491.966ZM231.973 488.122C231.973 488.122 231.985 488.118 231.993 488.114C231.985 488.114 231.981 488.118 231.973 488.122ZM245.425 505.658C245.429 505.616 245.433 505.575 245.437 505.53C245.437 505.57 245.433 505.612 245.425 505.658ZM271.309 504.873C271.309 504.832 271.314 504.791 271.322 504.745C271.318 504.787 271.314 504.827 271.309 504.873ZM246.271 463.532C246.271 463.532 246.291 463.553 246.299 463.561C246.291 463.553 246.279 463.54 246.271 463.532ZM246.739 463.925C246.739 463.925 246.779 463.949 246.796 463.965C246.775 463.953 246.755 463.941 246.739 463.925ZM252.155 459.045C252.155 459.045 252.168 459.07 252.176 459.082C252.168 459.07 252.164 459.058 252.155 459.045ZM251.891 458.612C251.907 458.636 251.928 458.666 251.944 458.69C251.928 458.666 251.911 458.636 251.891 458.612ZM240.936 501.501C240.936 501.501 240.956 501.497 240.964 501.492C240.956 501.492 240.944 501.497 240.936 501.501Z" fill="url(#paint1_linear_1696_2330)"/>
<path d="M290.015 458.968C289.747 458.968 289.491 458.852 289.308 458.65C272.655 440.07 263.81 431.98 236.762 420.649C236.319 420.463 236.079 419.972 236.205 419.497C236.331 419.027 236.778 418.717 237.258 418.787C271.979 423.538 294.688 456.842 294.911 457.181C295.103 457.469 295.131 457.841 294.981 458.155C294.83 458.469 294.525 458.675 294.183 458.699L290.076 458.972C290.056 458.972 290.035 458.972 290.015 458.972V458.968ZM246.335 422.742C266.945 432.314 275.696 440.599 290.414 456.999L292.325 456.871C288.128 451.224 271.117 430.126 246.335 422.742Z" fill="white"/>
<path d="M301.812 477.477C301.8 477.41 301.772 477.344 301.731 477.291C301.015 476.391 300.153 474.859 299.372 473.558C298.978 472.907 298.604 472.308 298.258 471.858C298.083 471.631 297.917 471.441 297.742 471.293C297.567 471.148 297.38 471.02 297.107 471.012C296.981 471.012 296.847 471.053 296.741 471.127C296.636 471.202 296.558 471.297 296.501 471.399V471.413C296.323 471.751 296.266 472.164 296.262 472.634C296.266 473.493 296.485 474.517 297.022 475.276C297.238 475.573 297.534 475.863 297.872 476.151C298.742 476.894 299.852 477.591 300.141 477.769L300.166 477.819C300.19 477.872 300.218 477.963 300.247 478.104C300.275 478.264 300.401 478.392 300.56 478.426C300.808 478.475 300.995 478.504 301.166 478.504C301.329 478.504 301.499 478.484 301.662 478.352C301.743 478.286 301.8 478.19 301.829 478.104C301.857 478.017 301.865 477.938 301.865 477.872C301.865 477.707 301.833 477.596 301.812 477.481V477.477Z" fill="white"/>
<path d="M242.598 501.518C241.626 501.282 240.625 501.444 239.78 501.971C238.93 502.5 238.336 503.334 238.1 504.316C237.868 505.299 238.027 506.318 238.547 507.177C239.068 508.039 239.889 508.646 240.857 508.882C241.15 508.952 241.439 508.984 241.728 508.984C243.411 508.984 244.944 507.817 245.355 506.083C245.587 505.101 245.428 504.081 244.908 503.222C244.387 502.359 243.566 501.753 242.598 501.518Z" fill="white"/>
<path d="M259.271 482.706C258.751 481.844 257.929 481.237 256.961 481.002C255.993 480.763 254.989 480.927 254.143 481.456C253.293 481.984 252.699 482.818 252.464 483.801C252.232 484.783 252.39 485.798 252.911 486.661C253.431 487.524 254.253 488.131 255.221 488.365C255.514 488.436 255.806 488.473 256.099 488.473C256.778 488.473 257.449 488.283 258.043 487.916C258.893 487.388 259.487 486.553 259.723 485.571C259.954 484.588 259.796 483.573 259.275 482.71L259.271 482.706Z" fill="white"/>
<path d="M275.024 508.984C274.736 508.984 274.447 508.952 274.154 508.882C273.186 508.646 272.365 508.039 271.844 507.177C271.324 506.314 271.165 505.299 271.397 504.316C271.629 503.334 272.227 502.5 273.076 501.971C273.926 501.444 274.927 501.282 275.895 501.518C276.863 501.753 277.684 502.359 278.205 503.222C278.725 504.085 278.884 505.101 278.652 506.083C278.241 507.817 276.708 508.984 275.024 508.984ZM274.601 506.991C275.577 507.23 276.562 506.615 276.793 505.629C276.907 505.151 276.83 504.655 276.578 504.234C276.326 503.813 275.923 503.519 275.451 503.404C274.976 503.288 274.492 503.367 274.077 503.623C273.662 503.879 273.373 504.288 273.259 504.766C273.146 505.245 273.223 505.74 273.475 506.162C273.727 506.583 274.13 506.875 274.597 506.991H274.601Z" fill="white"/>
<path d="M233.558 495.343C233.265 495.343 232.972 495.306 232.679 495.235C231.711 495.001 230.89 494.394 230.369 493.531C229.849 492.668 229.69 491.652 229.922 490.666C230.154 489.684 230.752 488.849 231.602 488.322C232.451 487.793 233.452 487.632 234.424 487.867C235.392 488.102 236.213 488.709 236.734 489.572C237.254 490.435 237.413 491.45 237.181 492.433C236.949 493.415 236.351 494.248 235.501 494.777C234.908 495.149 234.241 495.335 233.562 495.335L233.558 495.343ZM233.545 489.708C233.216 489.708 232.891 489.8 232.598 489.981C232.183 490.237 231.894 490.645 231.78 491.124C231.667 491.603 231.744 492.099 231.996 492.52C232.248 492.94 232.651 493.233 233.122 493.349C233.594 493.465 234.082 493.386 234.497 493.13C234.912 492.874 235.201 492.466 235.314 491.987C235.428 491.508 235.351 491.013 235.099 490.591C234.847 490.171 234.444 489.878 233.972 489.762C233.83 489.728 233.688 489.708 233.545 489.708Z" fill="white"/>
<path d="M248.859 464.603C248.571 464.603 248.282 464.569 247.989 464.499C245.988 464.012 244.752 461.965 245.232 459.933C245.464 458.951 246.062 458.117 246.912 457.589C247.761 457.061 248.762 456.899 249.734 457.135C251.735 457.622 252.971 459.669 252.491 461.701C252.08 463.434 250.547 464.603 248.864 464.603H248.859ZM248.437 462.608C249.413 462.844 250.393 462.233 250.628 461.246C250.86 460.259 250.258 459.26 249.286 459.021C248.815 458.906 248.327 458.984 247.912 459.24C247.497 459.496 247.208 459.905 247.095 460.384C246.859 461.375 247.465 462.37 248.437 462.608Z" fill="white"/>
<path d="M272.375 502.55C272.586 502.335 272.814 502.133 273.074 501.967C273.371 501.781 273.684 501.645 274.01 501.55C270.952 496.84 265.746 490.95 259.569 485.992C259.341 486.615 258.967 487.156 258.467 487.578C264.425 492.37 269.435 498.03 272.367 502.545L272.375 502.55Z" fill="white"/>
<path d="M245.322 506.171H271.418C271.26 505.572 271.252 504.937 271.398 504.313C271.406 504.285 271.418 504.255 271.426 504.227H252.748C250.272 501.341 238.694 487.096 240.203 474.617C240.654 470.885 242.256 467.62 244.969 464.863C244.883 465.127 244.802 465.4 244.733 465.68C243.208 471.806 246.437 478.947 252.618 483.347C252.85 482.728 253.232 482.188 253.736 481.771C247.299 477.226 245.489 470.564 246.587 466.159C246.758 465.478 246.998 464.842 247.295 464.256C246.534 463.901 245.937 463.299 245.558 462.576C241.732 465.8 239.499 469.783 238.934 474.469C238.015 482.068 241.703 490.15 244.956 495.595C247.254 499.438 249.666 502.538 251.065 504.235H245.327C245.485 504.833 245.493 505.469 245.347 506.089C245.339 506.117 245.327 506.146 245.318 506.175L245.322 506.171Z" fill="white"/>
<path d="M235.497 494.784C235.388 494.85 235.274 494.908 235.164 494.962C237.209 497.501 238.612 499.981 239.572 502.128C239.641 502.078 239.702 502.017 239.78 501.971C240.268 501.665 240.808 501.488 241.362 501.435C240.337 499.123 238.832 496.44 236.62 493.699C236.327 494.133 235.953 494.504 235.501 494.784H235.497Z" fill="white"/>
<path d="M327.084 491.966C326.962 491.557 326.588 491.275 326.165 491.275H326.157C326.096 491.275 323.717 491.255 318.406 489.241C313.635 487.428 307.942 482.281 306.588 480.882C306.641 480.865 306.702 480.853 306.771 480.837C306.929 480.803 307.076 480.733 307.202 480.625C307.564 480.316 307.771 479.878 307.792 479.367C307.869 477.505 305.282 474.818 304.986 474.521C304.591 474.116 302.358 470.604 297.377 462.042L297.243 461.811C297.218 461.774 297.202 461.732 297.182 461.696C297.047 461.435 296.848 461.039 296.267 460.647C296.193 460.597 296.112 460.556 296.027 460.531C294.591 460.064 290.036 460.771 288.052 461.113C287.763 460.75 287.328 460.148 287.157 459.908C286.999 459.689 286.881 459.529 286.844 459.483C285.4 457.769 283.819 456.089 282.139 454.492C276.885 449.485 271.338 445.881 265.645 443.776C260.773 441.972 256.491 437.278 255.466 432.606C255.384 432.231 255.303 431.83 255.303 431.475C255.303 431.025 254.998 430.633 254.563 430.529C254.132 430.427 253.685 430.641 253.489 431.046C251.806 434.522 252.879 439.293 253.624 441.733C242.879 440.668 239.065 432.56 238.906 432.209C238.731 431.817 238.317 431.595 237.894 431.652C237.471 431.714 237.141 432.057 237.084 432.482C236.23 438.934 239.118 442.947 241.041 444.85C232.599 446.319 226.389 439.463 226.324 439.388C226.072 439.104 225.681 438.996 225.324 439.112C224.966 439.227 224.705 439.545 224.661 439.925C224.628 440.197 224.026 446.394 232.818 451.227C228.158 455.817 225.6 461.456 225.214 468.007C224.766 475.598 227.418 483.371 230.781 489.038C231.021 488.77 231.285 488.519 231.598 488.325C231.842 488.171 232.103 488.052 232.367 487.965C229.195 482.607 226.702 475.28 227.121 468.127C227.503 461.642 230.191 456.127 235.108 451.723C235.348 451.508 235.466 451.182 235.421 450.86C235.376 450.538 235.177 450.257 234.888 450.117C229.703 447.594 227.731 444.651 226.991 442.621C229.996 445.036 235.995 448.573 243.412 446.265C243.77 446.154 244.03 445.84 244.079 445.465C244.128 445.089 243.957 444.717 243.636 444.515C243.587 444.482 239.35 441.724 238.882 435.78C241.147 438.748 245.836 443.116 254.059 443.718C254.091 443.718 254.128 443.718 254.156 443.718C254.408 443.71 254.661 443.71 254.909 443.71C254.929 443.71 254.953 443.714 254.966 443.71C255.283 443.71 255.576 443.554 255.754 443.289C255.933 443.025 255.97 442.691 255.86 442.389C255.262 440.816 254.563 438.224 254.51 435.768C256.438 440.04 260.488 443.937 264.982 445.597C270.431 447.611 275.758 451.082 280.821 455.904C282.448 457.452 283.981 459.082 285.372 460.729C285.409 460.775 285.494 460.895 285.604 461.047C286.844 462.773 287.178 463.235 287.901 463.103C290.854 462.571 294.331 462.162 295.307 462.343C295.38 462.409 295.409 462.463 295.47 462.583C295.51 462.657 295.547 462.735 295.592 462.81L295.718 463.028C300.284 470.88 302.944 475.206 303.623 475.895C304.774 477.064 305.677 478.45 305.844 479.077C305.258 479.28 304.864 479.586 304.644 480.01C304.485 480.32 304.355 480.828 304.64 481.501C304.977 482.297 311.972 488.87 317.73 491.057C320.26 492.018 322.179 492.551 323.542 492.849C320.874 494.681 316.685 497.687 314.786 499.718C308.418 491.85 298.755 486.092 297.633 485.439C296.718 484.907 295.262 484.246 293.578 483.483C290.061 481.885 285.242 479.697 283.77 477.827C281.602 475.078 281.509 472.068 281.61 468.709C281.618 468.411 281.496 468.131 281.273 467.936C281.139 467.822 277.918 465.068 273.078 462.393C268.577 459.908 261.798 457.056 255.018 457.563C253.79 457.658 252.652 457.893 251.602 458.249C252.046 458.74 252.355 459.343 252.497 459.998C253.319 459.743 254.205 459.573 255.161 459.499C266.153 458.67 277.56 467.408 279.687 469.126C279.61 472.572 279.825 475.92 282.277 479.037C284.038 481.274 288.898 483.479 292.802 485.249C294.437 485.992 295.852 486.632 296.681 487.119C297.816 487.78 307.926 493.802 314.03 501.863C314.229 502.124 314.546 502.268 314.868 502.24C315.193 502.211 315.482 502.021 315.632 501.727C316.433 500.205 322.842 495.602 326.689 493.055C327.047 492.819 327.202 492.374 327.08 491.961L327.084 491.966Z" fill="white"/>
</g>
</g>
<defs>
<linearGradient id="paint0_linear_1696_2330" x1="275.878" y1="415.149" x2="275.878" y2="600.626" gradientUnits="userSpaceOnUse">
<stop stop-color="#FF5500"/>
<stop offset="1" stop-color="#FF5500" stop-opacity="0"/>
</linearGradient>
<linearGradient id="paint1_linear_1696_2330" x1="275.884" y1="403.437" x2="275.884" y2="498.433" gradientUnits="userSpaceOnUse">
<stop stop-color="#FF5500"/>
<stop offset="1" stop-color="#FF5500" stop-opacity="0"/>
</linearGradient>
<clipPath id="clip0_1696_2330">
<rect width="520" height="600" fill="white"/>
</clipPath>
<clipPath id="clip1_1696_2330">
<rect width="520" height="600" fill="white"/>
</clipPath>
</defs>
</svg>
